<svg id="Layer_1" data-name="Layer 1" xmlns="http://www.w3.org/2000/svg" viewBox="0 0 2631.08 3096"><defs><style>.cls-1,.cls-5{fill:#fff;}.cls-2{fill:#352b04;}.cls-3,.cls-4{fill:none;}.cls-3,.cls-4,.cls-5{stroke:#352b04;stroke-miterlimit:10;}.cls-3,.cls-5{stroke-width:8px;}.cls-4{stroke-width:22px;}</style></defs><title>new border-01</title><path class="cls-1" d="M108.26,364V3002.73H2547.74V364Zm2340.3,2531.89H207.44V470.84H2448.56Z" transform="translate(-12.46 -15.38)"/><polygon class="cls-2" points="2448.1 2892.56 2421.6 2892.56 2421.6 2880.56 2436.1 2880.56 2436.1 2866.06 2448.1 2866.06 2448.1 2892.56"/><path class="cls-2" d="M2392.32,2907.94h-41.74v-12h41.74Zm-83.48,0H2267.1v-12h41.74Zm-83.48,0h-41.74v-12h41.74Zm-83.48,0h-41.74v-12h41.74Zm-83.48,0h-41.74v-12h41.74Zm-83.48,0H1933.2v-12h41.74Zm-83.48,0h-41.74v-12h41.74Zm-83.48,0h-41.74v-12H1808Zm-83.48,0h-41.74v-12h41.74Zm-83.48,0H1599.3v-12H1641Zm-83.48,0h-41.74v-12h41.74Zm-83.48,0h-41.74v-12h41.74Zm-83.48,0h-41.74v-12h41.74Zm-83.48,0h-41.74v-12h41.74Zm-83.48,0h-41.74v-12h41.74Zm-83.48,0h-41.74v-12h41.74Zm-83.48,0H1015v-12h41.74Zm-83.48,0H931.49v-12h41.74Zm-83.48,0H848v-12h41.74Zm-83.48,0H764.54v-12h41.74Zm-83.48,0H681.06v-12H722.8Zm-83.48,0H597.59v-12h41.74Zm-83.48,0H514.11v-12h41.74Zm-83.48,0H430.63v-12h41.74Zm-83.48,0H347.16v-12H388.9Zm-83.48,0H263.68v-12h41.74Z" transform="translate(-12.46 -15.38)"/><polygon class="cls-2" points="209.49 2892.56 182.99 2892.56 182.99 2866.06 194.99 2866.06 194.99 2880.56 209.49 2880.56 209.49 2892.56"/><path class="cls-2" d="M207.44,2840.82h-12v-40.61h12Zm0-81.22h-12V2719h12Zm0-81.22h-12v-40.61h12Zm0-81.22h-12v-40.61h12Zm0-81.22h-12v-40.61h12Zm0-81.22h-12v-40.61h12Zm0-81.22h-12v-40.61h12Zm0-81.22h-12v-40.61h12Zm0-81.22h-12v-40.61h12Zm0-81.22h-12V2069.2h12Zm0-81.22h-12V1988h12Zm0-81.22h-12v-40.61h12Zm0-81.22h-12v-40.61h12Zm0-81.22h-12V1744.3h12Zm0-81.22h-12v-40.61h12Zm0-81.22h-12v-40.61h12Zm0-81.22h-12v-40.61h12Zm0-81.22h-12v-40.61h12Zm0-81.22h-12v-40.61h12Zm0-81.22h-12V1257h12Zm0-81.22h-12v-40.61h12Zm0-81.22h-12v-40.61h12Zm0-81.22h-12v-40.61h12Zm0-81.22h-12V932.07h12Zm0-81.22h-12V850.84h12Zm0-81.22h-12V769.62h12Zm0-81.22h-12V688.4h12Zm0-81.22h-12V607.17h12Zm0-81.22h-12V525.95h12Z" transform="translate(-12.46 -15.38)"/><polygon class="cls-2" points="194.99 469.96 182.99 469.96 182.99 443.46 209.49 443.46 209.49 455.46 194.99 455.46 194.99 469.96"/><path class="cls-2" d="M2392.32,470.84h-41.74v-12h41.74Zm-83.48,0H2267.1v-12h41.74Zm-83.48,0h-41.74v-12h41.74Zm-83.48,0h-41.74v-12h41.74Zm-83.48,0h-41.74v-12h41.74Zm-83.48,0H1933.2v-12h41.74Zm-83.48,0h-41.74v-12h41.74Zm-83.48,0h-41.74v-12H1808Zm-83.48,0h-41.74v-12h41.74Zm-83.48,0H1599.3v-12H1641Zm-83.48,0h-41.74v-12h41.74Zm-83.48,0h-41.74v-12h41.74Zm-83.48,0h-41.74v-12h41.74Zm-83.48,0h-41.74v-12h41.74Zm-83.48,0h-41.74v-12h41.74Zm-83.48,0h-41.74v-12h41.74Zm-83.48,0H1015v-12h41.74Zm-83.48,0H931.49v-12h41.74Zm-83.48,0H848v-12h41.74Zm-83.48,0H764.54v-12h41.74Zm-83.48,0H681.06v-12H722.8Zm-83.48,0H597.58v-12h41.74Zm-83.48,0H514.11v-12h41.74Zm-83.48,0H430.63v-12h41.74Zm-83.48,0H347.16v-12H388.9Zm-83.48,0H263.68v-12h41.74Z" transform="translate(-12.46 -15.38)"/><polygon class="cls-2" points="2448.1 469.96 2436.1 469.96 2436.1 455.46 2421.6 455.46 2421.6 443.46 2448.1 443.46 2448.1 469.96"/><path class="cls-2" d="M2460.56,2840.83h-12v-40.61h12Zm0-81.22h-12V2719h12Zm0-81.22h-12v-40.61h12Zm0-81.22h-12v-40.61h12Zm0-81.22h-12v-40.61h12Zm0-81.22h-12v-40.61h12Zm0-81.22h-12v-40.61h12Zm0-81.22h-12v-40.61h12Zm0-81.22h-12v-40.61h12Zm0-81.22h-12V2069.2h12Zm0-81.22h-12V1988h12Zm0-81.22h-12v-40.61h12Zm0-81.22h-12v-40.61h12Zm0-81.22h-12V1744.3h12Zm0-81.22h-12v-40.61h12Zm0-81.22h-12v-40.61h12Zm0-81.22h-12v-40.61h12Zm0-81.22h-12v-40.61h12Zm0-81.22h-12v-40.61h12Zm0-81.22h-12V1257h12Zm0-81.22h-12v-40.61h12Zm0-81.22h-12v-40.61h12Zm0-81.22h-12v-40.61h12Zm0-81.22h-12V932.07h12Zm0-81.22h-12V850.84h12Zm0-81.22h-12V769.62h12Zm0-81.22h-12V688.4h12Zm0-81.22h-12V607.17h12Zm0-81.22h-12V525.95h12Z" transform="translate(-12.46 -15.38)"/><path class="cls-3" d="M108.26,364V3002.73H2547.74V364Z" transform="translate(-12.46 -15.38)"/><polyline class="cls-4" points="95.8 599.33 95.8 348.67 346.46 348.67"/><polyline class="cls-4" points="346.46 2987.36 95.8 2987.36 95.8 2736.7"/><polyline class="cls-4" points="2535.28 599.33 2535.28 348.67 2284.63 348.67"/><polyline class="cls-4" points="2284.63 2987.36 2535.28 2987.36 2535.28 2736.7"/><path class="cls-5" d="M16.46,19.38v3088H2639.54V19.38ZM2547.74,3002.73H108.26V364H2547.74Z" transform="translate(-12.46 -15.38)"/></svg>